<?xml version="1.0" encoding="UTF-8" standalone="no"?>
<!DOCTYPE svg PUBLIC "-//W3C//DTD SVG 1.1//EN" "http://www.w3.org/Graphics/SVG/1.1/DTD/svg11.dtd">
<svg width="342px" height="200px" viewBox="30 0 342 200" version="1.1" xmlns="http://www.w3.org/2000/svg" xmlns:xlink="http://www.w3.org/1999/xlink" xml:space="preserve" style="fill-rule:evenodd;clip-rule:evenodd;">
    <!--
      Copyright 2025 Adobe. All rights reserved.
      This file is licensed to you under the Apache License,
      Version 2.0 (http://www.apache.org/licenses/LICENSE-2.0)
      or the MIT license (http://opensource.org/licenses/MIT),
      at your option.

      Unless required by applicable law or agreed to in writing,
      this software is distributed on an "AS IS" BASIS, WITHOUT
      WARRANTIES OR REPRESENTATIONS OF ANY KIND, either express or
      implied. See the LICENSE-MIT and LICENSE-APACHE files for the
      specific language governing permissions and limitations under
      each license.
    -->
    <defs>
        <linearGradient id="tealGrad" x1="0%" y1="0%" x2="0%" y2="100%">
            <stop offset="0%" stop-color="#14B8A6"/>
            <stop offset="100%" stop-color="#0D9488"/>
        </linearGradient>
        <linearGradient id="darkTealGrad" x1="0%" y1="0%" x2="0%" y2="100%">
            <stop offset="0%" stop-color="#134E4A"/>
            <stop offset="100%" stop-color="#0D9488"/>
        </linearGradient>
        <radialGradient id="glowGrad" cx="50%" cy="50%" r="50%" fx="50%" fy="50%">
            <stop offset="0%" stop-color="#5EEAD4" stop-opacity="0.8"/>
            <stop offset="100%" stop-color="#0D9488" stop-opacity="0"/>
        </radialGradient>
    </defs>
    <g transform="translate(100,100)">
        <circle cx="0" cy="0" r="60" style="fill:url(#glowGrad);fill-rule:nonzero;"/>
        <circle cx="0" cy="0" r="50" style="fill:none;stroke:url(#tealGrad);stroke-width:8;opacity:0.5;fill-rule:nonzero;"/>
        <circle cx="0" cy="0" r="35" style="fill:none;stroke:url(#tealGrad);stroke-width:10;opacity:0.8;fill-rule:nonzero;"/>
        <circle cx="0" cy="0" r="20" style="fill:url(#darkTealGrad);fill-rule:nonzero;"/>
        <!-- Wavy outer ripples -->
        <path d="M 55.0,0.0 L 56.7,3.6 L 58.0,7.4 L 58.5,11.3 L 58.1,15.1 L 56.7,18.6 L 54.6,21.8 L 51.7,24.6 L 48.5,27.0 L 45.1,29.0 L 41.8,30.8 L 38.8,32.6 L 36.2,34.5 L 34.0,36.8 L 32.1,39.5 L 30.3,42.6 L 28.5,45.9 L 26.4,49.3 L 24.0,52.5 L 21.1,55.2 L 17.8,57.2 L 14.1,58.3 L 10.3,58.4 L 6.4,57.7 L 2.7,56.3 L -0.9,54.5 L -4.2,52.5 L -7.3,50.7 L -10.3,49.2 L -13.3,48.2 L -16.5,47.7 L -19.9,47.5 L -23.6,47.6 L -27.5,47.6 L -31.5,47.3 L -35.4,46.5 L -39.0,45.0 L -42.1,42.8 L -44.5,39.8 L -46.2,36.3 L -47.2,32.5 L -47.6,28.5 L -47.6,24.6 L -47.6,20.8 L -47.6,17.3 L -48.0,14.1 L -48.9,11.0 L -50.3,8.0 L -52.1,5.0 L -54.0,1.7 L -55.9,-1.8 L -57.4,-5.5 L -58.3,-9.3 L -58.4,-13.2 L -57.5,-16.9 L -55.8,-20.3 L -53.2,-23.3 L -50.1,-25.8 L -46.8,-28.0 L -43.4,-29.9 L -40.3,-31.7 L -37.5,-33.5 L -35.1,-35.6 L -33.0,-38.1 L -31.2,-41.0 L -29.4,-44.2 L -27.5,-47.6 L -25.2,-50.9 L -22.6,-53.9 L -19.5,-56.3 L -16.0,-57.8 L -12.2,-58.5 L -8.4,-58.2 L -4.5,-57.1 L -0.9,-55.5 L 2.5,-53.5 L 5.8,-51.6 L 8.8,-49.9 L 11.8,-48.6 L 14.9,-47.9 L 18.2,-47.6 L 21.7,-47.6 L 25.5,-47.6 L 29.5,-47.5 L 33.5,-47.0 L 37.2,-45.8 L 40.6,-44.0 L 43.4,-41.4 L 45.4,-38.1 L 46.8,-34.4 L 47.5,-30.5 L 47.6,-26.5 L 47.6,-22.7 L 47.6,-19.0 L 47.8,-15.7 L 48.4,-12.6 L 49.5,-9.5 L 51.1,-6.5 L 53.0,-3.4 L 55.0,-0.0 Z" style="fill:none;stroke:url(#tealGrad);stroke-width:4;opacity:0.4;fill-rule:nonzero;"/>
        <path d="M 65.0,0.0 L 66.7,4.2 L 67.9,8.7 L 68.3,13.2 L 67.8,17.6 L 66.2,21.8 L 63.9,25.6 L 60.8,28.9 L 57.2,31.8 L 53.5,34.4 L 49.9,36.7 L 46.5,39.0 L 43.5,41.4 L 40.8,44.2 L 38.4,47.3 L 36.1,50.7 L 33.8,54.4 L 31.1,58.1 L 28.1,61.6 L 24.7,64.5 L 20.7,66.7 L 16.5,68.0 L 12.0,68.3 L 7.5,67.7 L 3.2,66.3 L -1.0,64.5 L -5.0,62.5 L -8.7,60.6 L -12.3,59.0 L -16.0,57.8 L -19.8,57.1 L -23.8,56.8 L -28.0,56.6 L -32.5,56.3 L -37.0,55.7 L -41.5,54.5 L -45.5,52.6 L -49.1,49.9 L -52.0,46.5 L -54.1,42.5 L -55.4,38.2 L -56.2,33.6 L -56.5,29.1 L -56.7,24.8 L -57.0,20.8 L -57.6,16.9 L -58.7,13.2 L -60.2,9.6 L -62.0,5.9 L -64.0,2.0 L -65.9,-2.1 L -67.4,-6.4 L -68.2,-10.9 L -68.1,-15.4 L -67.1,-19.7 L -65.1,-23.7 L -62.4,-27.3 L -59.0,-30.4 L -55.4,-33.1 L -51.7,-35.6 L -48.1,-37.8 L -44.9,-40.2 L -42.1,-42.8 L -39.6,-45.7 L -37.3,-49.0 L -35.0,-52.6 L -32.5,-56.3 L -29.7,-59.9 L -26.4,-63.1 L -22.7,-65.7 L -18.7,-67.5 L -14.3,-68.2 L -9.8,-68.1 L -5.3,-67.1 L -1.0,-65.5 L 3.0,-63.5 L 6.9,-61.5 L 10.5,-59.7 L 14.2,-58.4 L 17.9,-57.4 L 21.7,-56.9 L 25.9,-56.7 L 30.3,-56.5 L 34.8,-56.0 L 39.3,-55.1 L 43.6,-53.6 L 47.4,-51.3 L 50.6,-48.3 L 53.1,-44.6 L 54.8,-40.4 L 55.9,-35.9 L 56.4,-31.4 L 56.6,-27.0 L 56.8,-22.8 L 57.3,-18.8 L 58.1,-15.1 L 59.4,-11.4 L 61.1,-7.8 L 63.0,-4.0 L 65.0,-0.0 Z" style="fill:none;stroke:url(#tealGrad);stroke-width:4;opacity:0.4;fill-rule:nonzero;"/>
        <!-- Ripple dots -->
        <circle cx="45.0" cy="0.0" r="5" style="fill:url(#tealGrad);opacity:0.7;fill-rule:nonzero;"/>
        <circle cx="31.8" cy="31.8" r="5" style="fill:url(#tealGrad);opacity:0.7;fill-rule:nonzero;"/>
        <circle cx="0.0" cy="45.0" r="5" style="fill:url(#tealGrad);opacity:0.7;fill-rule:nonzero;"/>
        <circle cx="-31.8" cy="31.8" r="5" style="fill:url(#tealGrad);opacity:0.7;fill-rule:nonzero;"/>
        <circle cx="-45.0" cy="0.0" r="5" style="fill:url(#tealGrad);opacity:0.7;fill-rule:nonzero;"/>
        <circle cx="-31.8" cy="-31.8" r="5" style="fill:url(#tealGrad);opacity:0.7;fill-rule:nonzero;"/>
        <circle cx="-0.0" cy="-45.0" r="5" style="fill:url(#tealGrad);opacity:0.7;fill-rule:nonzero;"/>
        <circle cx="31.8" cy="-31.8" r="5" style="fill:url(#tealGrad);opacity:0.7;fill-rule:nonzero;"/>
    </g>
    <text x="180" y="95" style="font-family:sans-serif;font-size:55px;font-weight:900;fill:rgb(85,85,85);fill-rule:nonzero;">Lake</text>
    <text x="180" y="140" style="font-family:sans-serif;font-size:55px;font-weight:900;fill:url(#tealGrad);fill-rule:nonzero;">Pulse</text>
</svg>